<svg width="500" height="500" viewBox="0 0 500 500" fill="none" xmlns="http://www.w3.org/2000/svg">
<g clip-path="url(#clip0_121_20)">
<path d="M88.8066 468.401L1.8535 437.199C-1.07033 436.15 -0.358413 431.823 2.74706 431.803C19.1621 431.692 42.1953 430.001 51.3818 404.399L79.165 326.972C85.1621 310.26 83.0566 291.979 74.4785 276.434C46.001 224.822 69.5351 132.439 105.507 77.1914C108.332 72.8516 113.719 70.9893 118.593 72.7383C141.556 80.9785 207.076 104.489 230.036 112.728C234.908 114.476 237.884 119.334 237.306 124.479C230 189.517 189.499 276.213 134.525 297.967C118.045 304.488 104.84 317.27 98.8535 333.953L73.9804 403.27C61.2988 438.61 78.1328 452.822 91.5058 463.626C93.9453 465.598 91.7578 469.461 88.8066 468.401Z" fill="#E8E9EA"/>
<path d="M215.159 204.554C185.772 271.175 136.628 312.918 100.006 299.782C72.7344 289.987 59.4883 252.252 62.6602 204.554H215.159V204.554Z" fill="#F7C94B"/>
<path d="M411.193 468.401L498.145 437.2C501.069 436.151 500.357 431.824 497.252 431.804C480.837 431.693 457.804 430.002 448.617 404.4L420.834 326.973C414.837 310.261 416.942 291.98 425.52 276.435C454.001 224.818 430.459 132.422 394.481 77.1758C391.662 72.8457 386.283 70.9892 381.421 72.7343C358.465 80.9717 292.894 104.501 269.946 112.735C265.085 114.479 262.116 119.328 262.692 124.461C269.992 189.501 310.496 276.212 365.475 297.968C381.955 304.489 395.16 317.271 401.146 333.954L426.02 403.271C438.702 438.611 421.868 452.823 408.495 463.627C406.055 465.598 408.242 469.461 411.193 468.401Z" fill="#E8E9EA"/>
<path d="M284.841 204.554C314.228 271.175 363.372 312.918 399.994 299.782C427.266 289.987 440.512 252.252 437.34 204.554H284.841V204.554Z" fill="#F7C94B"/>
<path d="M250 68.1709C246.924 68.1709 244.435 65.6816 244.435 62.6055V36.9834C244.435 33.9072 246.924 31.418 250 31.418C253.076 31.418 255.565 33.9072 255.565 36.9834V62.6055C255.565 65.6816 253.076 68.1709 250 68.1709ZM267.301 66.54C265.127 64.3662 265.127 60.8437 267.301 58.6699L285.416 40.5547C287.59 38.3809 291.112 38.3809 293.286 40.5547C295.46 42.7285 295.46 46.251 293.286 48.4248L275.171 66.54C272.997 68.7148 269.475 68.7148 267.301 66.54ZM224.829 66.54L206.714 48.4248C204.54 46.251 204.54 42.7285 206.714 40.5547C208.888 38.3809 212.41 38.3809 214.584 40.5547L232.699 58.6699C234.873 60.8437 234.873 64.3662 232.699 66.54C230.525 68.7148 227.004 68.7148 224.829 66.54Z" fill="#D1DFE8"/>
</g>
<defs>
<clipPath id="clip0_121_20">
<rect width="500" height="500" fill="white"/>
</clipPath>
</defs>
</svg>
